<svg xmlns="http://www.w3.org/2000/svg" viewBox="0 0 640 360" fill="none" aria-hidden="true">
  <defs>
    <linearGradient id="ocaBg" x1="0" y1="0" x2="1" y2="1">
      <stop offset="0%" stop-color="#f8fafc"/>
      <stop offset="45%" stop-color="#f4f8ff"/>
      <stop offset="100%" stop-color="#e8effc"/>
    </linearGradient>
    <linearGradient id="ocaCurve" x1="0" y1="1" x2="1" y2="1">
      <stop offset="0%" stop-color="#2563eb"/>
      <stop offset="100%" stop-color="#3b82f6"/>
    </linearGradient>
    <linearGradient id="ocaFill" x1="0" y1="0" x2="0" y2="1">
      <stop offset="0%" stop-color="rgb(37 99 235 / 0.22)"/>
      <stop offset="100%" stop-color="rgb(37 99 235 / 0)"/>
    </linearGradient>
  </defs>
  <rect width="640" height="360" rx="18" fill="url(#ocaBg)" stroke="#e2e8f0" stroke-width="2"/>
  <path d="M32 294h578" stroke="#cbd5e1" stroke-width="1.25" stroke-linecap="round"/>
  <path d="M32 294h578" stroke="#f1f5f9" stroke-width="42" opacity="0.75"/>
  <text x="48" y="52" fill="#0f172a" font-family="ui-sans-serif, system-ui, sans-serif" font-size="15" font-weight="700">
    Portfolio balance vs. age
  </text>
  <text x="48" y="76" fill="#64748b" font-family="ui-sans-serif, system-ui, sans-serif" font-size="11" font-weight="500">
    Single chart shows when assets reach zero across the retirement timeline
  </text>
  <path d="M56 274 C 148 266 218 246 294 218 C 364 188 396 252 478 294 L 56 294 Z" fill="url(#ocaFill)"/>
  <path
    d="M56 274 C 148 266 218 246 294 218 C 358 188 394 258 478 294"
    stroke="url(#ocaCurve)"
    stroke-width="3.5"
    stroke-linecap="round"
    stroke-linejoin="round"
    fill="none"
  />
  <line x1="478" y1="84" x2="478" y2="294" stroke="#f59e0b" stroke-width="2" stroke-dasharray="8 10" stroke-linecap="round"/>
  <circle cx="478" cy="294" r="6.5" fill="#fbbf24" stroke="#b45309" stroke-width="1.5"/>
  <rect x="496" y="96" rx="10" ry="10" width="146" height="58" fill="rgb(251 191 36 / 0.12)" stroke="#f59e0b" stroke-width="1"/>
  <text x="510" y="122" fill="#92400e" font-family="ui-sans-serif, system-ui, sans-serif" font-size="11" font-weight="650">
    Zero crossing
  </text>
  <text x="510" y="140" fill="#b45309" font-family="ui-sans-serif, system-ui, sans-serif" font-size="10.5" font-weight="500">
    One clear milestone
  </text>
  <text x="56" y="332" fill="#94a3b8" font-family="ui-sans-serif, system-ui, sans-serif" font-size="10.5">62</text>
  <text x="142" y="332" fill="#94a3b8" font-family="ui-sans-serif, system-ui, sans-serif" font-size="10.5">67</text>
  <text x="228" y="332" fill="#94a3b8" font-family="ui-sans-serif, system-ui, sans-serif" font-size="10.5">72</text>
  <text x="314" y="332" fill="#94a3b8" font-family="ui-sans-serif, system-ui, sans-serif" font-size="10.5">77</text>
  <text x="400" y="332" fill="#94a3b8" font-family="ui-sans-serif, system-ui, sans-serif" font-size="10.5">82</text>
  <text x="486" y="332" fill="#94a3b8" font-family="ui-sans-serif, system-ui, sans-serif" font-size="10.5">87</text>
  <text x="572" y="332" fill="#94a3b8" font-family="ui-sans-serif, system-ui, sans-serif" font-size="10.5">92</text>
</svg>
